<?xml version="1.0" encoding="UTF-8"?> <svg xmlns="http://www.w3.org/2000/svg" width="148" height="46" viewBox="0 0 148 46" fill="none"><g clip-path="url(#clip0_2002_4969)"><path fill-rule="evenodd" clip-rule="evenodd" d="M92.0309 35.7086C83.4782 42.0594 71.0807 45.4403 60.404 45.4403C46.1375 45.5146 32.3576 40.2243 21.7644 30.6061C20.9633 29.8779 21.6817 28.8845 22.6429 29.4462C34.4155 36.2186 47.7433 39.7743 61.3032 39.7604C71.4339 39.7094 81.4548 37.6448 90.7906 33.6853C92.2325 33.0819 93.4314 34.6579 92.0309 35.7086Z" fill="#FF9900"></path><path fill-rule="evenodd" clip-rule="evenodd" d="M95.5916 31.6202C94.496 30.2106 88.3567 30.9492 85.6022 31.2821C84.765 31.3861 84.6358 30.6527 85.3903 30.117C90.2842 26.6581 98.3098 27.6568 99.24 28.8167C100.17 29.9765 98.992 38.0802 94.4082 41.9396C93.7002 42.5378 93.0283 42.2205 93.3436 41.4195C94.372 38.8396 96.6871 33.0297 95.5916 31.6202Z" fill="#FF9900"></path><path fill-rule="evenodd" clip-rule="evenodd" d="M85.7988 5.671V2.31094C85.796 2.19815 85.816 2.08595 85.8576 1.98116C85.8992 1.87638 85.9615 1.7812 86.0408 1.70141C86.12 1.62163 86.2146 1.55889 86.3187 1.51703C86.4228 1.47517 86.5343 1.45506 86.6464 1.45792H101.633C101.746 1.45444 101.858 1.4738 101.963 1.51484C102.068 1.55588 102.164 1.61778 102.245 1.69686C102.326 1.77593 102.391 1.87058 102.435 1.97518C102.479 2.07977 102.501 2.19218 102.501 2.30574V5.19249C102.501 5.67621 102.093 6.30556 101.375 7.30942L93.6229 18.4559C96.5013 18.3883 99.5504 18.82 102.165 20.3023C102.399 20.4332 102.595 20.6226 102.735 20.8523C102.874 21.082 102.952 21.3441 102.961 21.6131V25.1968C102.965 25.3313 102.936 25.4646 102.875 25.5847C102.815 25.7048 102.726 25.8078 102.616 25.8843C102.506 25.9608 102.379 26.0085 102.246 26.0228C102.113 26.0372 101.979 26.0179 101.855 25.9666C99.4074 24.7007 96.6941 24.0429 93.9421 24.0483C91.1901 24.0538 88.4794 24.7222 86.0366 25.9978C85.5198 26.2735 84.9668 25.7117 84.9668 25.2176V21.8055C84.919 20.9969 85.1134 20.1924 85.525 19.4961L94.5117 6.49282H86.6619C86.5511 6.49771 86.4406 6.48013 86.3367 6.44115C86.2329 6.40218 86.1379 6.34259 86.0574 6.26593C85.9769 6.18926 85.9125 6.09709 85.8681 5.99489C85.8237 5.89269 85.8001 5.78254 85.7988 5.671Z" fill="black"></path><path fill-rule="evenodd" clip-rule="evenodd" d="M31.1701 26.6739H26.6173C26.4117 26.6639 26.2165 26.5803 26.0668 26.4382C25.9171 26.2961 25.8227 26.1048 25.8008 25.8989V2.36288C25.8062 2.1334 25.9017 1.91541 26.0663 1.75655C26.2309 1.59769 26.4513 1.51087 26.6793 1.51506H30.9221C31.1322 1.52196 31.3325 1.6063 31.4849 1.75204C31.6374 1.89779 31.7313 2.09479 31.7489 2.30565V5.37964H31.8368C32.9427 2.40448 35.0253 1.02093 37.8314 1.02093C40.6375 1.02093 42.4824 2.40448 43.7434 5.37964C44.1648 4.2592 44.8743 3.27155 45.7995 2.51777C46.7246 1.76398 47.8322 1.27113 49.0087 1.08964C50.1853 0.908149 51.3886 1.04454 52.4956 1.48485C53.6026 1.92516 54.5735 2.65359 55.3089 3.59559C56.7559 5.5773 56.4562 8.44843 56.4562 10.9763V25.8261C56.4507 26.0555 56.3553 26.2735 56.1907 26.4324C56.0261 26.5913 55.8057 26.6781 55.5776 26.6739H51.0558C50.8382 26.6634 50.6327 26.5699 50.4811 26.4124C50.3294 26.255 50.243 26.0453 50.2393 25.8261V13.3429C50.2393 12.3494 50.322 9.8736 50.1101 8.93216C49.769 7.37176 48.751 6.90363 47.4332 6.90363C46.8414 6.92151 46.2678 7.11392 45.7836 7.45697C45.2995 7.80001 44.9261 8.2786 44.7098 8.83333C44.2395 10.0244 44.286 12.0061 44.286 13.3429V25.8261C44.2806 26.0555 44.1851 26.2735 44.0205 26.4324C43.8559 26.5913 43.6355 26.6781 43.4075 26.6739H38.8546C38.6366 26.6646 38.4304 26.5715 38.2785 26.4138C38.1266 26.2561 38.0406 26.0457 38.0381 25.8261V13.3429C38.0381 10.7162 38.4619 6.85163 35.232 6.85163C32.0021 6.85163 32.0848 10.6174 32.0848 13.3429V25.8261C32.0822 25.9429 32.0563 26.058 32.0085 26.1645C31.9607 26.271 31.892 26.3666 31.8066 26.4458C31.7212 26.5249 31.6208 26.586 31.5115 26.6251C31.4021 26.6643 31.286 26.6809 31.1701 26.6739Z" fill="black"></path><path fill-rule="evenodd" clip-rule="evenodd" d="M115.374 1.021C122.139 1.021 125.792 6.8621 125.792 14.2948C125.792 21.4726 121.756 27.1681 115.374 27.1681C108.739 27.1681 105.126 21.327 105.126 14.0451C105.126 6.76327 108.78 1.021 115.374 1.021ZM115.415 5.82183C112.056 5.82183 111.844 10.4302 111.844 13.3013C111.844 16.1725 111.803 22.3152 115.374 22.3152C118.945 22.3152 119.074 17.3636 119.074 14.3416C119.074 12.3599 118.991 9.9829 118.392 8.10001C117.88 6.472 116.862 5.82183 115.415 5.82183Z" fill="black"></path><path fill-rule="evenodd" clip-rule="evenodd" d="M134.562 26.6738H130.025C129.806 26.6645 129.6 26.5714 129.448 26.4137C129.296 26.2559 129.21 26.0456 129.208 25.826V2.28475C129.234 2.07057 129.337 1.87343 129.498 1.73131C129.659 1.5892 129.867 1.51213 130.081 1.51495H134.309C134.497 1.52165 134.678 1.5897 134.824 1.70884C134.97 1.82798 135.074 1.99177 135.12 2.17551V5.77484H135.203C136.479 2.55521 138.267 1.02081 141.404 1.02081C142.454 0.971524 143.499 1.20187 144.433 1.6886C145.366 2.17533 146.156 2.90125 146.722 3.79313C147.91 5.67601 147.91 8.84362 147.91 11.1218V25.93C147.88 26.1399 147.775 26.3315 147.614 26.4685C147.453 26.6055 147.248 26.6785 147.037 26.6738H142.469C142.269 26.6638 142.078 26.5841 141.93 26.4484C141.782 26.3127 141.686 26.1294 141.657 25.93V13.1555C141.657 10.5549 141.957 6.8151 138.81 6.8151C138.237 6.84014 137.684 7.03114 137.216 7.36516C136.748 7.69918 136.387 8.162 136.174 8.69798C135.612 10.1126 135.365 11.6343 135.451 13.1555V25.826C135.441 26.0559 135.343 26.2731 135.177 26.4314C135.011 26.5897 134.79 26.6767 134.562 26.6738Z" fill="black"></path><path fill-rule="evenodd" clip-rule="evenodd" d="M73.8608 15.4337C73.8608 17.223 73.9021 18.7106 73.0081 20.297C72.7148 20.8963 72.2671 21.4055 71.7118 21.7715C71.1564 22.1374 70.5136 22.3467 69.8506 22.3775C68.1038 22.3775 67.0806 21.0356 67.0806 19.0539C67.0806 15.1477 70.5637 14.4351 73.8608 14.4351V15.4337ZM78.4498 26.6166C78.3026 26.7423 78.1207 26.8196 77.9285 26.8382C77.7364 26.8568 77.5432 26.8158 77.3749 26.7206C76.3284 25.8704 75.4441 24.8359 74.7651 23.6674C72.2639 26.2317 70.4914 26.9963 67.2512 26.9963C63.4166 26.9963 60.4348 24.6141 60.4348 19.8497C60.3827 18.2497 60.8209 16.6723 61.6899 15.3315C62.5589 13.9907 63.8167 12.9514 65.2926 12.3546C67.7628 11.2675 71.2149 11.0646 73.8608 10.7682V10.1752C73.8608 9.08292 73.9435 7.79299 73.3026 6.84635C73.0041 6.45537 72.616 6.14286 72.1714 5.93546C71.7269 5.72807 71.2392 5.63192 70.7497 5.65524C69.0082 5.65524 67.463 6.55508 67.0858 8.41195C67.0621 8.6195 66.9722 8.81373 66.8297 8.96561C66.6872 9.11749 66.4996 9.21887 66.2951 9.25457L61.8766 8.77085C61.768 8.75667 61.6634 8.72006 61.5694 8.66331C61.4755 8.60656 61.3941 8.5309 61.3306 8.44105C61.267 8.3512 61.2226 8.24911 61.2001 8.14117C61.1775 8.03324 61.1774 7.92178 61.1997 7.81379C62.2332 2.42001 67.0496 0.791992 71.3854 0.791992C73.6024 0.791992 76.5015 1.39015 78.2482 3.07538C80.4652 5.15592 80.2533 7.93863 80.2533 10.9658V18.1124C80.2533 20.2606 81.137 21.202 81.9691 22.3619C82.1287 22.5237 82.2184 22.7424 82.2184 22.9705C82.2184 23.1985 82.1287 23.4173 81.9691 23.579C81.0337 24.3644 79.3851 25.8104 78.4704 26.627L78.4498 26.6166Z" fill="black"></path><path fill-rule="evenodd" clip-rule="evenodd" d="M14.1359 15.4337C14.1359 17.223 14.1773 18.7106 13.2832 20.297C12.9912 20.8963 12.5446 21.4056 11.99 21.7716C11.4355 22.1376 10.7933 22.3469 10.1309 22.3775C8.37898 22.3775 7.35576 21.0356 7.35576 19.0539C7.35576 15.1477 10.8389 14.4351 14.1359 14.4351V15.4337ZM18.7301 26.6166C18.5817 26.7421 18.399 26.8192 18.2061 26.8378C18.0133 26.8563 17.8193 26.8155 17.65 26.7206C16.6035 25.8704 15.7192 24.8359 15.0403 23.6674C12.5391 26.2317 10.7665 26.9963 7.5263 26.9963C3.69179 26.9963 0.709971 24.6141 0.709971 19.8497C0.657875 18.2497 1.09605 16.6723 1.96506 15.3315C2.83406 13.9907 4.09182 12.9514 5.5677 12.3546C8.03791 11.2675 11.49 11.0646 14.1359 10.7682V10.1752C14.1359 9.08292 14.2186 7.79299 13.583 6.84635C13.2804 6.45189 12.8872 6.13736 12.437 5.92986C11.9869 5.72236 11.4934 5.62812 10.9991 5.65524C9.26268 5.65524 7.7175 6.55508 7.33509 8.41195C7.31136 8.6195 7.22151 8.81373 7.07899 8.96561C6.93647 9.11749 6.74893 9.21887 6.54441 9.25457L2.13112 8.77085C2.02199 8.75733 1.91683 8.72119 1.82227 8.66472C1.72771 8.60825 1.64579 8.53267 1.5817 8.44275C1.51761 8.35283 1.47272 8.25052 1.44988 8.14227C1.42703 8.03402 1.42672 7.92217 1.44896 7.81379C2.48252 2.42001 7.29891 0.791992 11.6347 0.791992C13.8517 0.791992 16.7508 1.39015 18.4975 3.07538C20.7145 5.15592 20.5026 7.93863 20.5026 10.9658V18.1124C20.5026 20.2606 21.3863 21.202 22.2235 22.3619C22.382 22.5243 22.4707 22.7429 22.4707 22.9705C22.4707 23.1981 22.382 23.4166 22.2235 23.579C21.2933 24.3644 19.6396 25.8104 18.7301 26.627V26.6166Z" fill="black"></path></g><defs><clipPath id="clip0_2002_4969"><rect width="147.2" height="44.6482" fill="white" transform="translate(0.710693 0.792114)"></rect></clipPath></defs></svg> 