<?xml version="1.0" encoding="UTF-8"?> <svg xmlns="http://www.w3.org/2000/svg" width="56" height="69" viewBox="0 0 56 69" fill="none"><path d="M46.3469 36.3582C46.4435 46.7152 55.3135 50.161 55.4123 50.2045C54.3277 53.6616 52.7531 56.9407 50.7378 59.9389C47.9236 64.1074 45.0021 68.2606 40.3985 68.3477C35.8765 68.4326 34.4222 65.6289 29.2515 65.6289C24.0808 65.6289 22.4675 68.2606 18.1882 68.4326C13.7458 68.6024 10.3623 63.9245 7.52241 59.7691C1.72227 51.2798 -2.70947 35.7596 3.24319 25.2895C6.19912 20.0892 11.4837 16.8001 17.2173 16.7109C21.5802 16.626 25.6983 19.6843 28.3643 19.6843C31.0302 19.6843 36.0333 16.0078 41.2943 16.5476C43.4962 16.6412 49.6723 17.4488 53.6465 23.3369C53.3264 23.5372 46.2717 27.6904 46.3426 36.3582M37.8486 10.9273C40.2116 8.03437 41.7948 4.00739 41.3609 0C37.9624 0.137135 33.8422 2.29429 31.4126 5.18719C29.2278 7.74704 27.3138 11.8437 27.8294 15.7727C31.6188 16.0687 35.4899 13.8136 37.8486 10.9273Z" fill="black"></path></svg> 