<?xml version="1.0" encoding="UTF-8"?> <svg xmlns="http://www.w3.org/2000/svg" width="133" height="47" viewBox="0 0 133 47" fill="none"><g clip-path="url(#clip0_2002_5009)"><path d="M25.1831 20.9198V29.4161C25.1831 31.5951 26.2462 32.6517 28.4388 32.6517H29.3912C31.5839 32.6517 32.647 31.5951 32.647 29.4161V25.256H37.6524V29.24C37.6524 34.6987 34.8839 37.5161 29.3247 37.5161H28.2616C22.7689 37.5161 19.934 34.7647 19.934 29.9003V9.03385C19.934 2.93679 22.7025 0.119385 28.2616 0.119385H29.3247C34.8175 0.119385 37.6524 2.87076 37.6524 8.39553V20.8758H25.2052V20.9198H25.1831ZM25.1831 15.9233H32.5584V8.17542C32.5584 5.99633 31.4953 4.9398 29.3026 4.9398H28.4831C26.2905 4.9398 25.2274 5.99633 25.2274 8.17542V15.9233H25.1831Z" fill="black"></path><path d="M41.0635 0.559648H46.2461V2.91483C47.0531 2.05174 48.0296 1.36227 49.1153 0.889041C50.201 0.415807 51.3728 0.168858 52.5583 0.163452C56.988 0.163452 59.1585 3.09091 59.1585 7.38306V30.2525C59.1585 34.5887 56.9658 37.4721 52.5583 37.4721C51.3816 37.4758 50.2162 37.2438 49.1317 36.79C48.0472 36.3362 47.0658 35.6699 46.2461 34.8308V46.6287H41.0635V0.559648ZM46.2461 30.7147C47.5561 31.9001 49.2586 32.5659 51.0301 32.5857C52.9127 32.5857 54.0423 31.7052 54.0423 29.5922V8.02138C54.0423 5.90832 52.9792 5.02788 51.0301 5.02788C49.3247 5.02788 47.6636 5.73224 46.2461 6.89882V30.7147Z" fill="black"></path><path d="M62.3032 24.3755C62.3032 19.8632 63.7871 18.0363 67.7295 16.6936L74.684 14.3385V8.17537C74.684 5.99628 73.6209 4.8297 71.4282 4.8297H70.6088C68.4161 4.8297 67.353 5.99628 67.353 8.17537V13.326H62.3475V8.35146C62.3475 2.89273 65.116 0.0753174 70.6752 0.0753174H71.6719C77.1646 0.0753174 79.9996 2.82669 79.9996 8.35146V37.0318H74.8169V34.7427C73.3994 36.0854 71.4504 37.45 68.5047 37.45C64.363 37.45 62.4361 35.0949 62.4361 31.0008V24.3755H62.3032ZM74.7062 30.8907V18.8727L69.9886 20.6336C68.106 21.404 67.4416 22.3285 67.4416 24.4415V30.0103C67.4416 31.7712 68.3275 32.6516 69.9886 32.6516C71.5611 32.5856 72.9786 32.0573 74.7062 30.8907Z" fill="black"></path><path d="M100.775 37.0539H95.592V7.66921C95.592 5.84229 94.7061 5.02789 93.1114 5.02789C91.6939 5.02789 90.1657 5.55615 88.3274 6.8548V37.0539H83.1448V0.559648H88.3274V2.91483C89.8113 1.50612 91.8047 0.163452 94.6396 0.163452C97.2974 0.163452 99.0693 1.21998 99.9995 3.15695C101.838 1.57216 104.008 0.163452 107.02 0.163452C111.029 0.163452 113.089 2.62868 113.089 6.61268V37.0979H107.906V7.66921C107.906 5.84229 107.02 5.02789 105.426 5.02789C104.008 5.02789 102.48 5.55615 100.642 6.8548V37.0539H100.775Z" fill="black"></path><path d="M13.3783 3.9054V10.6408L4.69623 18.8509L13.3783 26.9509V33.8184L0.111572 21.3821V16.4517L13.3783 3.9054Z" fill="#00B5D1"></path><path d="M133 16.4517V21.3821L119.733 33.8184V26.9509L128.415 18.8509L119.733 10.5967V3.9054L133 16.4517Z" fill="#00B5D1"></path></g><defs><clipPath id="clip0_2002_5009"><rect width="132.889" height="46.5533" fill="white" transform="translate(0.111572 0.0753174)"></rect></clipPath></defs></svg> 