<?xml version="1.0" encoding="UTF-8"?> <svg xmlns="http://www.w3.org/2000/svg" width="183" height="37" viewBox="0 0 183 37" fill="none"><path d="M100.705 12.6477C97.9722 12.3503 95.6111 13.1916 93.6011 15.6219V14.8699V0.657349L86.3716 1.54961V36.2078H93.6011V34.1513C94.5789 34.8566 95.5275 35.7107 96.6349 36.1143C100.847 37.6482 106.405 36.399 108.336 30.6672C109.517 27.0587 109.613 23.174 108.612 19.5097C107.596 15.3797 104.892 13.0981 100.705 12.6477ZM101.783 27.659C101.466 29.9407 99.6939 31.1389 97.5543 30.9732C96.523 30.9399 95.5455 30.4976 94.8309 29.7408C94.1163 28.9841 93.7213 27.973 93.7306 26.924C93.6136 25.2966 93.484 21.8975 94.2655 20.2915C94.9258 19.0593 96.0833 18.388 97.6086 18.337C99.7858 18.2647 101.432 19.3609 101.754 21.6086C102.048 23.6136 102.058 25.6512 101.783 27.659Z" fill="#0078F6"></path><path d="M126.351 13.0727C123.876 12.3951 121.27 12.3951 118.795 13.0727C115.034 14.0924 112.527 16.5058 111.712 20.3468C111.293 22.4771 111.152 24.6543 111.294 26.8221C111.562 31.738 114.554 35.2391 119.192 36.3268L119.393 36.3736H119.426C119.606 36.4118 119.781 36.4458 119.961 36.4713H120.141C120.362 36.5138 120.634 36.5435 120.918 36.569C121.924 36.6926 122.939 36.7097 123.948 36.62H124.111C128.904 36.3693 132.54 33.2974 133.601 28.5811C134.178 26.0262 134.186 23.3722 133.622 20.8141C132.732 16.7692 130.308 14.1561 126.351 13.0727ZM126.656 27.2852C126.631 27.4381 126.606 27.5869 126.572 27.7398C126.092 29.9068 124.545 31.0837 122.477 30.9817C120.258 30.8798 118.716 29.5626 118.519 27.3022C118.364 25.6465 118.353 23.9802 118.486 22.3225C118.699 19.7179 120.3 18.2945 122.703 18.3455C123.604 18.3221 124.486 18.6196 125.194 19.1867C125.903 19.7538 126.395 20.5549 126.585 21.4515C127.019 23.3932 126.681 26.8433 126.635 27.2852H126.656Z" fill="#0078F6"></path><path d="M17.7875 12.9538H12.6266V9.46545C13.0027 6.16406 18.36 6.7929 18.36 6.7929V1.12064C18.1762 1.07815 7.69971 -1.4287 5.61862 6.64419V6.69943C5.28849 7.71066 5.31356 12.3504 5.31774 12.9368H0.825439V19.1614H5.58101V36.0422H12.4929V19.1614H17.7875L18.3809 12.9538H17.7875Z" fill="#0078F6"></path><path d="M34.2816 15.9234L34.0434 15.6557L34.01 15.6218C33.9097 15.5155 33.8387 15.4476 33.8387 15.4476C32.2089 13.748 31.5946 13.3231 30.32 12.9619C25.414 11.4918 20.625 14.1049 19.1248 19.1186C18.2484 22.1666 18.1051 25.3841 18.7069 28.5001C19.8812 35.2644 24.829 37.529 30.1027 36.4116C31.72 36.0674 32.9235 35.0434 34.0393 33.62C34.1247 33.5036 34.2002 33.3799 34.2649 33.2504V36.2246H41.0096V12.9789H34.2858V15.9234H34.2816ZM33.6882 27.6164C33.4626 29.7663 31.7534 31.058 29.7308 30.973C27.7082 30.888 26.2874 29.7663 25.8403 27.7438C25.3012 24.8673 25.928 21.447 25.9824 21.1708C26.5256 19.2418 27.9047 18.2858 29.9314 18.3325C31.9582 18.3793 33.4584 19.5775 33.6924 21.6722C33.9021 23.6479 33.9007 25.6409 33.6882 27.6164Z" fill="#0078F6"></path><path d="M61.6408 34.5634C61.3273 33.3992 60.9721 32.252 60.6253 31.143L60.3035 29.9066C60.3035 29.9066 51.8454 34.0365 50.5249 26.1931C50.407 24.8909 50.4378 23.5791 50.6169 22.2841C50.9428 19.8707 52.3929 18.5791 54.6954 18.3581C55.4806 18.2886 56.2712 18.3215 57.0482 18.4559C58.0971 18.6343 59.1376 18.9572 60.2701 19.2419C60.6671 18.0012 61.0766 16.7776 61.4527 15.5411C61.5154 15.3457 61.5655 15.18 61.6031 15.0313L61.7954 14.2877C61.7147 14.1628 61.6058 14.0593 61.4778 13.986C61.1553 13.7704 60.8032 13.6043 60.4331 13.4932C60.2283 13.4167 60.0152 13.3487 59.8104 13.2807L59.4886 13.1702C57.2689 12.5849 54.9589 12.4407 52.6854 12.7454C47.8003 13.2722 44.4864 16.1997 43.5671 21.0392C43.0794 23.5763 43.1107 26.1884 43.659 28.7127C44.4948 32.5367 46.7667 35.0039 50.4748 36.1142C52.8709 36.7888 55.3844 36.9136 57.8338 36.4796C59.0585 36.21 60.2602 35.842 61.4276 35.3792L61.8455 35.2305L61.6533 34.5719L61.6408 34.5634Z" fill="#0078F6"></path><path d="M83.9058 25.4662C83.9245 23.861 83.8463 22.2561 83.6718 20.6607C83.0533 16.3226 80.4582 13.5778 76.2543 12.8597C74.6222 12.618 72.9663 12.5909 71.3274 12.779C66.8727 13.2039 63.4878 16.0379 62.7941 20.2868C62.3674 22.8986 62.3223 25.5602 62.6604 28.1855C63.1744 32.0817 65.0381 34.5588 68.2642 35.7527H68.306C69.7812 36.1989 76.9856 38.1151 83.35 34.869L83.0951 33.9172C82.8026 32.6425 82.4474 31.3934 82.1172 30.1357L82.0796 30.0125L81.7119 30.1357C81.4361 30.2122 81.1603 30.2972 80.8761 30.3906L80.7257 30.4374C79.4841 30.7975 78.2189 31.0673 76.9396 31.2447C75.7115 31.3665 74.4749 31.3736 73.2455 31.2659C71.2271 30.926 69.6851 29.8255 69.7561 27.2295H83.0575C83.0575 27.2295 83.8933 27.2295 83.9434 27.2082V26.9533L83.9058 25.4662ZM77.4035 22.2965H69.589C69.6307 20.7159 69.823 19.25 71.2062 18.3535C71.8823 17.8933 72.6726 17.6368 73.4859 17.6135C74.2992 17.5902 75.1024 17.8011 75.803 18.2218C77.3282 19.0758 77.4578 20.6224 77.4035 22.2965Z" fill="#0078F6"></path><path d="M182.502 13.2212H174.834L168.173 23.8094V1.7152V1.57073V0.678467L160.944 1.57073V36.2289H168.173V25.6237L174.834 36.2459H182.502L175.273 24.7144L182.502 13.2212Z" fill="#0078F6"></path><path d="M151.006 13.0726C148.532 12.3928 145.925 12.3928 143.451 13.0726C139.69 14.0924 137.182 16.5057 136.368 20.3467C135.948 22.477 135.808 24.6543 135.95 26.822C136.217 31.738 139.209 35.2433 143.848 36.3268L144.048 36.3735H144.082C144.261 36.4118 144.441 36.4457 144.621 36.4712H144.801C145.058 36.5179 145.317 36.5505 145.578 36.569C146.583 36.6926 147.599 36.7097 148.608 36.62H148.77C153.564 36.365 157.199 33.2888 158.265 28.5811C158.837 26.0234 158.837 23.3676 158.265 20.8098C157.392 16.7649 154.972 14.1518 151.006 13.0726ZM151.311 27.2809C151.286 27.4339 151.265 27.5826 151.228 27.7355C150.747 29.9025 149.201 31.0752 147.132 30.9817C144.913 30.8755 143.371 29.5541 143.175 27.2979C143.02 25.6422 143.008 23.9759 143.142 22.3182C143.355 19.7136 144.955 18.2903 147.358 18.3412C148.26 18.3178 149.141 18.6153 149.85 19.1824C150.559 19.7495 151.051 20.5506 151.24 21.4472C151.675 23.3677 151.341 26.839 151.295 27.2809H151.311Z" fill="#0078F6"></path></svg> 