<?xml version="1.0" encoding="UTF-8"?> <svg xmlns="http://www.w3.org/2000/svg" width="143" height="47" viewBox="0 0 143 47" fill="none"><path d="M26.7076 16.812H34.3888C34.504 16.812 34.6192 16.8194 34.7337 16.812C34.9622 16.7974 35.0565 16.9132 35.0804 17.1272C35.1288 17.5649 35.2078 18.0001 35.2385 18.4384C35.4339 21.2578 35.1031 24.0052 34.0807 26.6551C33.171 29.0129 31.6787 30.949 29.7595 32.5766C27.3704 34.6017 24.6199 35.8013 21.519 36.2439C18.0524 36.7383 14.6581 36.4926 11.4304 35.0985C5.09197 32.3584 1.19961 27.6078 0.192516 20.7701C-0.571377 15.5819 0.927618 10.935 4.32317 6.92573C6.93278 3.84427 10.2401 1.85457 14.1729 0.899954C16.1834 0.412284 18.2209 0.334866 20.2773 0.527496C23.4236 0.821927 26.2641 1.90821 28.8161 3.75344C29.4 4.17624 29.958 4.63322 30.4873 5.12196C30.6668 5.28716 30.7023 5.41396 30.5136 5.60476C29.501 6.62765 28.5013 7.66395 27.4905 8.69293C27.2816 8.90446 27.2694 8.89166 26.9747 8.63197C25.7226 7.52374 24.3185 6.66727 22.7356 6.10889C21.1527 5.55556 19.4759 5.31756 17.8006 5.40847C14.2532 5.58098 11.2607 6.96414 8.85324 9.55367C7.16495 11.3721 6.08068 13.516 5.65432 15.958C4.96455 19.9124 5.78909 23.5303 8.29946 26.6996C10.2193 29.1239 12.7425 30.6302 15.7877 31.2306C18.4727 31.7604 21.1172 31.5805 23.6514 30.5266C25.8917 29.5951 27.7117 28.1351 28.9001 25.9863C29.5739 24.7714 29.931 23.448 30.1356 22.0819C30.1804 21.7857 30.1595 21.7656 29.8128 21.7625C28.8286 21.7532 27.844 21.7489 26.8589 21.7497C24.2657 21.7497 21.6724 21.7497 19.0791 21.7497C18.948 21.7497 18.8163 21.7436 18.6852 21.7497C18.4604 21.7607 18.3612 21.6729 18.3624 21.4352C18.3693 19.9982 18.3693 18.5609 18.3624 17.1235C18.3624 16.8895 18.4543 16.8047 18.6834 16.8102C19.0932 16.82 19.5036 16.8102 19.9141 16.8102L26.7076 16.812Z" fill="#4486F4"></path><path d="M105.111 15.8089C105.258 15.6803 105.204 15.5236 105.207 15.3822C105.215 15.0232 105.216 14.6635 105.207 14.3045C105.202 14.0911 105.254 13.9698 105.505 13.971C106.932 13.9783 108.36 13.9765 109.788 13.971C109.993 13.971 110.094 14.0496 110.09 14.2569C110.09 14.3715 110.09 14.4855 110.09 14.6001C110.09 21.1804 110.09 27.7611 110.09 34.3422C110.09 36.1594 109.954 37.9644 109.385 39.7066C108.091 43.675 105.346 45.9786 101.234 46.6754C99.4173 46.9839 97.6071 46.932 95.8226 46.4194C93.4335 45.733 91.5296 44.359 90.0392 42.3961C89.5531 41.7577 89.1399 41.0675 88.8073 40.3381C88.6529 39.9992 88.6529 39.9894 89.0076 39.8413C90.263 39.3171 91.52 38.7967 92.7787 38.2802C93.1156 38.1418 93.126 38.1473 93.2902 38.4819C93.8574 39.6347 94.644 40.6009 95.7313 41.3049C96.9008 42.0614 98.1854 42.3473 99.5747 42.2394C100.571 42.162 101.521 41.9474 102.386 41.439C103.77 40.6252 104.537 39.3719 104.927 37.8577C105.245 36.6251 105.218 35.3657 105.209 34.1081C105.209 34.0295 105.222 33.9253 105.135 33.8899C104.968 33.8204 104.909 33.9832 104.829 34.0685C103.537 35.4139 101.927 36.1271 100.102 36.3667C98.0065 36.6416 96.0027 36.2624 94.1429 35.2859C90.5605 33.4041 88.4214 30.4463 87.8529 26.4572C87.3696 23.0673 88.2817 20.0108 90.4649 17.3591C92.0387 15.4462 94.0302 14.1362 96.4566 13.554C98.9682 12.9512 101.376 13.1834 103.601 14.5903C104.018 14.8519 104.402 15.1613 104.747 15.512C104.852 15.6309 104.939 15.7815 105.111 15.8089ZM105.547 24.6912C105.552 23.7546 105.376 22.8258 105.028 21.9554C104.327 20.1876 103.158 18.8538 101.332 18.1851C98.8004 17.2579 95.8906 18.2095 94.2648 20.4643C93.1965 21.9462 92.7775 23.6086 92.8945 25.4124C93.0354 27.5831 93.9089 29.3924 95.694 30.6847C98.3661 32.6195 102.053 32.1971 104.106 29.4655C105.129 28.1061 105.556 26.5608 105.547 24.6912Z" fill="#4486F4"></path><path d="M48.8124 13.2383C52.9994 13.4047 56.4832 15.1841 58.7497 19.0208C60.027 21.1843 60.4484 23.5586 60.2077 26.0512C59.9719 28.4981 59.0756 30.6762 57.4351 32.5171C55.1153 35.1201 52.1669 36.4325 48.688 36.4343C44.2854 36.4343 40.8133 34.6092 38.4928 30.845C35.9812 26.7693 36.1723 20.507 40.3416 16.4984C42.1567 14.7531 44.3369 13.7351 46.835 13.3754C47.4206 13.2913 48.0105 13.2816 48.8124 13.2383ZM55.133 24.5973C55.1441 23.7756 54.934 22.7283 54.4923 21.7262C52.5694 17.3682 46.7915 16.4789 43.701 20.0657C41.6439 22.454 41.4216 26.2688 43.184 28.9364C45.63 32.6378 50.8192 32.8829 53.5979 29.4204C54.665 28.0933 55.1294 26.5553 55.133 24.5973Z" fill="#EA4537"></path><path d="M73.9846 36.4417C69.1354 36.2539 65.4397 34.1959 63.3306 29.7466C61.23 25.3155 62.264 19.8572 65.7625 16.488C67.6003 14.7172 69.8166 13.6839 72.357 13.3675C75.3354 12.9945 78.1202 13.5504 80.6171 15.2329C83.6304 17.2597 85.2641 20.126 85.6219 23.7202C85.8424 25.9354 85.5055 28.069 84.4898 30.0483C82.5388 33.854 79.3588 35.9186 75.1173 36.4002C74.9219 36.4222 74.7252 36.4325 74.5286 36.4398C74.3454 36.4465 74.1647 36.4417 73.9846 36.4417ZM80.5393 24.843C80.5393 23.3489 80.1828 22.0621 79.4489 20.8844C77.0665 17.0604 71.6268 16.7885 68.8806 20.3558C66.965 22.8436 66.908 26.5779 68.7464 29.1613C71.0877 32.4531 75.8181 32.8067 78.609 29.8831C79.9512 28.4774 80.5423 26.7681 80.5399 24.843H80.5393Z" fill="#FBBD07"></path><path d="M131.656 36.4486C128.803 36.3962 125.861 35.1739 123.594 32.5216C121.885 30.5234 121.031 28.1698 120.898 25.5638C120.764 22.9748 121.251 20.5109 122.649 18.2932C124.598 15.2008 127.427 13.5092 131.093 13.2879C134.882 13.0587 137.832 14.6174 140.068 17.6129C140.987 18.8455 141.586 20.2402 142.134 21.6606C142.248 21.955 142.236 21.9654 141.842 22.1257C139.265 23.188 136.687 24.2497 134.11 25.3108C131.79 26.2658 129.47 27.2208 127.15 28.1759C127.088 28.2008 127.03 28.2313 126.966 28.2514C126.736 28.3258 126.709 28.4569 126.823 28.6605C127.697 30.2192 128.938 31.3323 130.728 31.6987C133.502 32.2674 136.057 31.4335 137.8 28.9671C138.017 28.6586 138.021 28.6538 138.335 28.8604C139.472 29.6074 140.608 30.3566 141.741 31.108C142.047 31.3097 142.05 31.3207 141.847 31.5895C139.469 34.7429 136.16 36.4663 131.656 36.4486ZM125.826 24.4677C126.01 24.4068 126.116 24.3757 126.219 24.333C129.336 23.0452 132.453 21.7563 135.57 20.4664C136.29 20.1683 136.305 20.122 135.828 19.5002C135.021 18.4523 133.908 17.9561 132.624 17.7933C130.072 17.4697 127.636 19.0582 126.574 21.0973C126.036 22.1312 125.799 23.2315 125.826 24.4677Z" fill="#EA4537"></path><path d="M113.481 18.6881C113.481 13.2018 113.481 7.71428 113.481 2.22555C113.481 1.5934 113.42 1.63364 114.052 1.63425C115.43 1.63668 116.809 1.64014 118.187 1.64461C118.598 1.64461 118.598 1.65375 118.607 2.04511C118.607 2.12679 118.607 2.20848 118.607 2.28894C118.607 13.2311 118.607 24.1732 118.607 35.1153C118.607 35.8011 118.716 35.7444 117.982 35.7456C116.686 35.748 115.389 35.748 114.093 35.7456C113.978 35.7456 113.863 35.7407 113.748 35.7456C113.569 35.7523 113.469 35.6846 113.481 35.492C113.489 35.3615 113.481 35.2305 113.481 35.1V18.6881Z" fill="#36A954"></path></svg> 