<?xml version="1.0" encoding="UTF-8"?> <svg xmlns="http://www.w3.org/2000/svg" width="191" height="43" viewBox="0 0 191 43" fill="none"><g clip-path="url(#clip0_2002_4995)"><path d="M0.32959 0.430176H19.6061C19.6061 7.06761 19.6061 13.705 19.6061 20.3425H0.32959V0.430176Z" fill="#F25022"></path><path d="M21.5719 0.430176H40.8507C40.8507 7.06761 40.8507 13.705 40.8507 20.3425H21.5731C21.5731 13.705 21.5731 7.06761 21.5731 0.430176H21.5719Z" fill="#80BA01"></path><path d="M174.157 8.01247C175.934 6.81653 178.23 6.7065 180.233 7.27577C180.251 8.50519 180.233 9.7358 180.241 10.9664C179.29 10.5335 178.17 10.2489 177.169 10.6758C176.374 11.0011 175.902 11.843 175.779 12.685C175.63 13.7529 175.727 14.8377 175.702 15.914C177.735 15.914 179.768 15.914 181.801 15.914C181.816 14.5506 181.785 13.1861 181.818 11.8227C183.201 11.4161 184.568 10.9604 185.943 10.5323C185.955 12.3262 185.927 14.1261 185.958 15.9236C187.333 15.9032 188.708 15.9236 190.083 15.914V19.4109C188.703 19.3523 187.322 19.3954 185.942 19.3906C185.942 21.401 185.942 23.4113 185.942 25.4229C185.964 26.5363 185.884 27.6557 186.01 28.7715C186.087 29.4257 186.317 30.1504 186.911 30.4889C187.906 31.0641 189.168 30.813 190.081 30.1815V33.7131C188.89 34.2477 187.558 34.4103 186.27 34.3111C185.047 34.2178 183.781 33.7585 182.983 32.7564C182.057 31.6214 181.825 30.0846 181.805 28.6471C181.795 25.5616 181.805 22.4761 181.805 19.3894C179.771 19.3894 177.737 19.3894 175.704 19.3894C175.704 24.2313 175.704 29.0737 175.704 33.9164H171.536C171.536 29.0753 171.536 24.2345 171.536 19.3942C170.569 19.375 169.602 19.3942 168.635 19.3786C168.635 18.2293 168.643 17.0788 168.635 15.9284C169.597 15.9056 170.56 15.9152 171.529 15.9284C171.6 14.3999 171.374 12.8273 171.816 11.3384C172.188 9.97687 173.023 8.7997 174.168 8.02323L174.157 8.01247Z" fill="#777777"></path><path d="M84.8971 8.2684C85.7376 8.13685 86.6476 8.43343 87.2045 9.11272C87.5244 9.49216 87.7238 9.96398 87.7755 10.4643C87.8273 10.9646 87.729 11.4693 87.4939 11.91C86.9591 12.8907 85.7573 13.3451 84.7153 13.1059C83.6329 12.905 82.731 11.8658 82.7796 10.7069C82.7483 9.48706 83.7359 8.39995 84.8936 8.26361L84.8971 8.2684Z" fill="#777777"></path><path d="M52.9469 8.8018H59.01C60.8971 13.7522 62.7881 18.7005 64.683 23.6469C65.1658 24.8847 65.6173 26.1369 66.1232 27.3651C68.5545 21.1797 71.0135 15.0099 73.417 8.81615C75.3609 8.78386 77.3059 8.80898 79.2509 8.80419C79.2463 17.1757 79.2463 25.5473 79.2509 33.9188C77.8477 33.9188 76.4457 33.9308 75.0437 33.9105C75.0587 27.7334 75.0437 21.5564 75.0506 15.3735C75.0506 15.096 75.0437 14.8186 75.0251 14.5363C74.9433 14.6649 74.8702 14.7991 74.8063 14.9381C72.3971 21.2611 69.9438 27.566 67.5461 33.8949C66.5481 33.932 65.549 33.8949 64.5498 33.914C62.0642 27.5911 59.6097 21.2539 57.1403 14.9262C57.0754 14.7946 57.006 14.6667 56.9307 14.5435C56.8798 17.2499 56.9226 19.9587 56.9087 22.6651C56.9087 26.4123 56.9087 30.1596 56.9087 33.9069C55.5854 33.9069 54.2621 33.9069 52.9399 33.9069C52.9399 25.5353 52.9399 17.1638 52.9399 8.79224L52.9469 8.8018Z" fill="#777777"></path><path d="M96.3706 15.9056C98.3971 15.3222 100.54 15.3289 102.563 15.9247C102.979 16.0416 103.379 16.2137 103.752 16.4365C103.729 17.8083 103.752 19.1812 103.74 20.5542C102.395 19.4934 100.69 18.8212 98.9813 19.0437C98.302 19.1074 97.643 19.317 97.0467 19.659C96.4504 20.0011 95.9299 20.4681 95.5185 21.0301C94.4765 22.4342 94.2345 24.2986 94.414 26.016C94.5483 27.3602 95.0866 28.7032 96.0985 29.5942C97.1497 30.5593 98.6235 30.9014 99.9989 30.7902C101.358 30.6287 102.641 30.0343 103.74 29.2043C103.751 30.5043 103.734 31.8043 103.749 33.1043C102.045 34.1519 100.001 34.4198 98.0505 34.3229C96.0545 34.2141 94.0643 33.4332 92.6195 31.9837C91.0496 30.4206 90.1975 28.1914 90.0967 25.9586C89.9948 23.6373 90.4522 21.2155 91.7454 19.2769C92.829 17.6229 94.524 16.4521 96.3706 15.902V15.9056Z" fill="#777777"></path><path d="M141.91 15.6256C143.838 15.2752 145.856 15.5323 147.681 16.2463C147.681 17.5618 147.681 18.8857 147.681 20.2048C146.395 19.2905 144.862 18.8226 143.302 18.869C142.523 18.9001 141.666 19.2409 141.311 20.0063C141.028 20.7634 141.224 21.756 141.915 22.2092C143.097 23.0261 144.507 23.3729 145.736 24.1048C146.7 24.6645 147.635 25.3964 148.124 26.4512C149.042 28.4269 148.653 31.0376 147.039 32.511C145.498 33.9988 143.279 34.4101 141.238 34.3312C139.788 34.2343 138.332 33.939 136.999 33.3266C136.999 31.9382 136.991 30.5509 137.006 29.1636C138.126 30.0164 139.42 30.5932 140.789 30.8499C141.741 31.0101 142.778 31.0173 143.666 30.5772C144.515 30.1407 144.668 28.8933 144.163 28.1303C143.691 27.5419 142.998 27.2178 142.343 26.8997C141.115 26.3292 139.824 25.8521 138.745 24.997C137.975 24.3867 137.426 23.5259 137.188 22.5537C136.855 21.1185 136.956 19.5088 137.767 18.2579C138.693 16.8 140.286 15.9258 141.915 15.6268L141.91 15.6256Z" fill="#777777"></path><path d="M113.074 16.1927C114.225 15.4751 115.687 15.4189 116.944 15.8554C116.944 17.2906 116.944 18.7257 116.944 20.1608C116.105 19.6133 115.113 19.3724 114.126 19.4767C112.942 19.6155 112.005 20.5531 111.518 21.6294C110.99 22.7691 110.891 24.0584 110.924 25.3045C110.924 28.1748 110.924 31.045 110.924 33.9152H106.814C106.814 27.9188 106.814 21.922 106.814 15.9248C108.186 15.9069 109.558 15.9141 110.93 15.9248C110.93 16.9545 110.93 17.9842 110.93 19.0151C111.376 17.8945 112.039 16.8062 113.085 16.1951L113.074 16.1927Z" fill="#777777"></path><path d="M83.1617 15.9224C84.5441 15.9165 85.9276 15.9021 87.3099 15.9296C87.2937 21.9248 87.3099 27.9212 87.303 33.9165H83.1641C83.1641 27.9193 83.1641 21.9212 83.1641 15.9224H83.1617Z" fill="#777777"></path><path d="M134.225 20.1188C133.497 18.4385 132.203 17.0879 130.584 16.3169C128.732 15.4439 126.617 15.3267 124.616 15.5898C122.515 15.8637 120.469 16.885 119.135 18.6155C117.917 20.1607 117.325 22.1459 117.211 24.1168C117.043 26.4381 117.418 28.9005 118.738 30.8392C119.862 32.5135 121.633 33.6604 123.554 34.0837C125.164 34.4299 126.826 34.4299 128.436 34.0837C130.31 33.6855 132.06 32.6139 133.222 31.0329C134.356 29.544 134.926 27.6663 135.054 25.7923C135.185 23.8764 134.998 21.8852 134.225 20.1188ZM130.199 28.3803C129.805 29.3226 129.07 30.0685 128.151 30.4588C127.061 30.8715 125.874 30.9254 124.753 30.6131C124.19 30.452 123.667 30.1705 123.217 29.7868C122.767 29.4032 122.4 28.926 122.14 28.3863C121.468 27.0014 121.367 25.3965 121.506 23.8812C121.633 22.4999 122.098 21.0791 123.117 20.126C123.855 19.4084 124.863 19.0652 125.86 19.0078C127.112 18.9229 128.446 19.2888 129.347 20.23C130.31 21.2083 130.683 22.6219 130.786 23.9817C130.86 25.4634 130.801 27.0074 130.199 28.3803Z" fill="#777777"></path><path d="M167.614 20.639C166.971 18.8291 165.693 17.3351 164.033 16.4533C162.134 15.463 159.925 15.3183 157.845 15.585C156.167 15.8075 154.518 16.4652 153.238 17.6265C151.675 19.0174 150.758 21.0624 150.488 23.1541C150.219 25.2458 150.318 27.4487 151.144 29.4064C151.956 31.3443 153.479 32.8706 155.379 33.6508C157.231 34.4054 159.298 34.488 161.251 34.1639C163.248 33.823 165.14 32.7383 166.376 31.0688C167.697 29.3443 168.266 27.1126 168.262 24.9384C168.291 23.4818 168.115 22.0048 167.614 20.639ZM163.853 26.7383C163.694 27.6855 163.376 28.6303 162.776 29.3801C162.175 30.13 161.27 30.5928 160.344 30.7339C159.346 30.8882 158.295 30.8141 157.362 30.3991C156.355 29.959 155.574 29.0584 155.162 28.0227C154.668 26.7885 154.569 25.4216 154.668 24.1013C154.763 22.8228 155.114 21.5109 155.931 20.5135C156.676 19.5854 157.82 19.0784 158.973 19.0054C160.151 18.9205 161.405 19.2015 162.314 20.0231C163.148 20.7407 163.61 21.8099 163.819 22.8934C164.05 24.1636 164.062 25.4662 163.853 26.7407V26.7383Z" fill="#777777"></path><path d="M0.329712 22.3743C6.75521 22.3743 13.1807 22.3743 19.6062 22.3743C19.6062 29.0117 19.6062 35.6487 19.6062 42.2854H0.329712V22.3743Z" fill="#02A4EF"></path><path d="M21.5731 22.377C27.9978 22.377 34.4229 22.377 40.8484 22.377V42.2893H21.5719C21.5719 35.6518 21.5719 29.0148 21.5719 22.3782L21.5731 22.377Z" fill="#FFB902"></path></g><defs><clipPath id="clip0_2002_4995"><rect width="189.755" height="41.8577" fill="white" transform="translate(0.327148 0.430176)"></rect></clipPath></defs></svg> 