<?xml version="1.0" encoding="UTF-8"?> <svg xmlns="http://www.w3.org/2000/svg" width="202" height="26" viewBox="0 0 202 26" fill="none"><g clip-path="url(#clip0_2002_5016)"><path d="M199.417 4.72825C199.879 4.71982 200.329 4.58214 200.708 4.33248C201.088 4.08282 201.382 3.73233 201.552 3.32508C201.722 2.91784 201.762 2.47199 201.665 2.0436C201.569 1.61521 201.341 1.22338 201.01 0.917365C200.679 0.611351 200.261 0.40481 199.806 0.323701C199.352 0.242591 198.882 0.290533 198.457 0.461502C198.031 0.632472 197.668 0.918837 197.414 1.28461C197.16 1.65037 197.025 2.07922 197.027 2.51724C197.039 3.10939 197.296 3.67332 197.744 4.08708C198.191 4.50084 198.792 4.73116 199.417 4.72825ZM197.625 2.51724C197.619 2.28963 197.66 2.06315 197.748 1.85095C197.835 1.63876 197.965 1.44507 198.132 1.28112C198.299 1.11717 198.498 0.986226 198.719 0.895884C198.939 0.805542 199.177 0.757596 199.417 0.754839C199.666 0.746134 199.914 0.785448 200.146 0.870385C200.379 0.955323 200.59 1.08411 200.769 1.24894C200.947 1.41376 201.088 1.61119 201.183 1.82921C201.278 2.04724 201.326 2.28132 201.322 2.51724C201.311 2.98757 201.104 3.4347 200.748 3.76233C200.392 4.08997 199.914 4.2719 199.417 4.26897C198.939 4.24732 198.488 4.05422 198.155 3.72887C197.822 3.40353 197.633 2.97033 197.625 2.51724ZM199.417 2.32497C199.506 2.336 199.596 2.32508 199.679 2.29326C199.762 2.26144 199.835 2.2098 199.891 2.14339V1.96181C199.888 1.88557 199.865 1.81123 199.823 1.74581C199.782 1.6804 199.724 1.62608 199.654 1.58798H199.056V2.32497H199.417ZM199.18 1.25686H199.891C200.047 1.3131 200.178 1.41741 200.264 1.55302C200.35 1.68863 200.385 1.84766 200.364 2.00455V2.18613C200.311 2.37752 200.187 2.54438 200.015 2.65611H199.891L200.601 3.72423H200.015L199.417 2.7095H199.056V3.72423H198.583V1.22482L199.18 1.25686Z" fill="#E12A26"></path><path d="M83.8072 17.6312H96.6928L89.9287 7.27041L77.5278 25.9626H71.8009L86.8736 3.4679C87.2096 3.01923 87.6593 2.65785 88.1814 2.41707C88.7034 2.17628 89.2811 2.06382 89.861 2.09003C90.4377 2.07507 91.0095 2.19257 91.5278 2.43252C92.0461 2.67246 92.4954 3.0277 92.8373 3.4679L108 25.9626H102.273L99.6464 21.7969H86.6707L83.8072 17.6312ZM142.768 21.7969V2.27161H137.875V23.7622C137.939 24.3435 138.191 24.8918 138.596 25.3324C139.079 25.7591 139.717 25.9926 140.378 25.9839H162.406L165.27 21.8182L142.768 21.7969ZM63.1992 18.2828C65.4417 18.2828 67.5922 17.4387 69.1779 15.9364C70.7635 14.4341 71.6543 12.3965 71.6543 10.2718C71.6543 8.14721 70.7635 6.1096 69.1779 4.60726C67.5922 3.10492 65.4417 2.26091 63.1992 2.26091H42.1403V25.9519H46.909V6.43728H62.7934C63.3297 6.43867 63.8605 6.5405 64.3552 6.73691C64.8498 6.93331 65.2987 7.22043 65.6758 7.58174C66.053 7.94306 66.351 8.37145 66.5529 8.84228C66.7547 9.31311 66.8563 9.81708 66.8518 10.3252C66.8534 10.8281 66.7491 11.3263 66.545 11.7905C66.3409 12.2547 66.0411 12.6757 65.6632 13.0288C65.2852 13.3819 64.8368 13.66 64.344 13.8469C63.8512 14.0337 63.3241 14.1256 62.7934 14.1171H49.2652L63.5938 25.9626H70.5157L60.9445 18.2828H63.1992ZM12.5812 25.9626C9.26537 25.9626 6.08534 24.7146 3.7407 22.4931C1.39606 20.2716 0.0788574 17.2587 0.0788574 14.1171C0.0788574 10.9755 1.39606 7.96252 3.7407 5.74107C6.08534 3.51961 9.26537 2.27161 12.5812 2.27161H27.0225C30.3384 2.27161 33.5184 3.51961 35.863 5.74107C38.2077 7.96252 39.5249 10.9755 39.5249 14.1171C39.5249 17.2587 38.2077 20.2716 35.863 22.4931C33.5184 24.7146 30.3384 25.9626 27.0225 25.9626H12.5812ZM26.7858 21.7969C27.8502 21.7969 28.9043 21.5982 29.8877 21.2123C30.8711 20.8264 31.7647 20.2607 32.5174 19.5475C33.27 18.8344 33.8671 17.9878 34.2744 17.056C34.6818 16.1243 34.8914 15.1256 34.8914 14.1171C34.8914 13.1086 34.6818 12.1099 34.2744 11.1781C33.8671 10.2464 33.27 9.39977 32.5174 8.68663C31.7647 7.9735 30.8711 7.40781 29.8877 7.02186C28.9043 6.63592 27.8502 6.43728 26.7858 6.43728H12.7728C11.7084 6.43728 10.6544 6.63592 9.67093 7.02186C8.68751 7.40781 7.79394 7.9735 7.04127 8.68663C6.28859 9.39977 5.69153 10.2464 5.28418 11.1781C4.87684 12.1099 4.66718 13.1086 4.66718 14.1171C4.66718 15.1256 4.87684 16.1243 5.28418 17.056C5.69153 17.9878 6.28859 18.8344 7.04127 19.5475C7.79394 20.2607 8.68751 20.8264 9.67093 21.2123C10.6544 21.5982 11.7084 21.7969 12.7728 21.7969H26.7858ZM118.101 25.9626C114.785 25.9626 111.605 24.7146 109.261 22.4931C106.916 20.2716 105.599 17.2587 105.599 14.1171C105.599 10.9755 106.916 7.96252 109.261 5.74107C111.605 3.51961 114.785 2.27161 118.101 2.27161H135.35L132.486 6.43728H118.439C117.375 6.43728 116.321 6.63592 115.337 7.02186C114.354 7.40781 113.46 7.9735 112.708 8.68663C111.955 9.39977 111.358 10.2464 110.951 11.1781C110.543 12.1099 110.334 13.1086 110.334 14.1171C110.334 15.1256 110.543 16.1243 110.951 17.056C111.358 17.9878 111.955 18.8344 112.708 19.5475C113.46 20.2607 114.354 20.8264 115.337 21.2123C116.321 21.5982 117.375 21.7969 118.439 21.7969H135.744L132.869 25.9626H118.101ZM176.96 21.7969C175.203 21.8157 173.489 21.2862 172.081 20.2901C170.673 19.2941 169.65 17.8868 169.17 16.2854H189.688L192.551 12.1197H169.17C169.636 10.5061 170.646 9.08123 172.046 8.06283C173.447 7.04443 175.161 6.48851 176.926 6.48001H191.018L193.882 2.31432H176.554C173.238 2.31432 170.058 3.56232 167.714 5.78378C165.369 8.00524 164.052 11.0182 164.052 14.1598C164.052 17.3014 165.369 20.3144 167.714 22.5358C170.058 24.7573 173.238 26.0053 176.554 26.0053H191.48L194.22 21.8396L176.96 21.7969Z" fill="#E2011A"></path></g><defs><clipPath id="clip0_2002_5016"><rect width="201.796" height="25.667" fill="white" transform="translate(0 0.295654)"></rect></clipPath></defs></svg> 